<svg width="21" height="18" viewBox="0 0 21 18" fill="none" xmlns="http://www.w3.org/2000/svg">
<path d="M15.4313 5.002L14.9907 3.491L20.1155 6.2734L15.0007 9.0248L15.4296 7.6496L6.71042 7.5882C6.71042 7.5882 3.57652 8.1346 3.50732 10.593C3.44702 12.7172 5.42362 13.9374 7.02802 13.8863C9.01902 13.823 10.3849 12.7258 10.759 11.5334C11.2433 9.9963 10.6395 7.6386 10.6395 7.6386H13.8723C13.8723 7.6386 14.8683 11.2612 13.3271 13.5374C11.6679 15.9889 9.64012 16.8222 7.13352 16.9066C4.41392 16.9973 0.304424 15.4497 0.243124 10.9875C0.217324 8.985 1.12042 7.8622 2.05632 6.9207C3.26582 5.7066 5.62832 5.002 6.68042 5.002C7.53602 5.002 7.96722 5.002 15.4313 5.002V5.002Z" fill="#FEFEFE"/>
<path d="M15.6646 4.93341L15.2231 3.42321L14.8732 3.70461L19.9991 6.48641L20.0008 6.06001L14.8851 8.81111L15.2332 9.09721L15.6613 7.72141L15.7585 7.40931L15.4313 7.40611L6.71214 7.34541H6.69014L6.66864 7.34961C6.63514 7.35591 3.33814 7.96001 3.26404 10.5868C3.23744 11.5166 3.57154 12.3552 4.23164 13.0117C4.95694 13.7319 6.03124 14.1601 7.03584 14.1293C9.24254 14.06 10.6123 12.8117 10.9915 11.6071C11.4905 10.0215 10.9204 7.93201 10.8957 7.83281L13.5395 7.60301C13.5499 7.63861 14.5491 10.3716 13.1265 13.4011C12.015 15.7683 9.80884 16.5729 7.12584 16.6636C5.65744 16.7118 3.56694 16.2663 2.09644 14.8664C1.05024 13.8682 0.508537 12.562 0.485637 10.9839C0.460637 9.03391 1.37214 7.95201 2.22844 7.09211C3.35204 5.96401 5.61554 5.24441 6.68044 5.24441H15.4313H15.7548L15.6646 4.93341V4.93341ZM6.68044 4.75881C5.50604 4.75881 3.11244 5.51601 1.88414 6.75001C0.957337 7.68031 -0.0286626 8.85241 0.00063743 10.9909C0.0242374 12.7041 0.615937 14.1262 1.76114 15.2171C3.34024 16.7219 5.57634 17.2014 7.14174 17.1486C9.99644 17.0524 11.9666 15.9805 13.5293 13.6728C15.1151 11.3311 14.1484 7.72731 14.1069 7.57451L14.0574 7.39611H13.8723H10.6395H10.3257L10.4034 7.69921C10.4093 7.72181 10.9846 10.0092 10.5272 11.4615C10.2 12.5018 8.98864 13.5817 7.02084 13.6432C6.14494 13.671 5.20754 13.297 4.57524 12.6664C4.18394 12.2764 3.72204 11.6019 3.75084 10.6001C3.81404 8.36491 6.72314 7.83321 6.75214 7.82791L6.70874 7.83141L15.4281 7.89191L15.1963 7.57721L14.7678 8.95301L14.591 9.52131L15.1159 9.23871L20.2305 6.48781L20.6253 6.27401L20.2322 6.06021L15.1061 3.27761L14.5927 2.99921L14.7576 3.55901L15.198 5.06991L15.4313 4.75881H6.68044V4.75881Z" fill="#009846"/>
<path d="M11.0064 0.242401H7.96663L3.37503 10.139C3.37113 10.1908 3.28553 10.4622 3.28433 10.5159C3.24373 11.9561 4.17383 12.9995 5.28133 13.5023L9.33473 4.2917L10.5807 7.6055H13.8329L11.0064 0.242401V0.242401Z" fill="#FEFEFE"/>
<path d="M11.0064 0H7.96662H7.81172L7.74542 0.141L3.15522 10.0366L3.13772 10.0748L3.13432 10.1162C3.13082 10.1265 3.11242 10.196 3.10082 10.2417C3.05892 10.3938 3.04302 10.4554 3.04162 10.5086C3.00122 11.8958 3.80062 13.0963 5.18022 13.7237L5.40402 13.8247L5.50292 13.6001L9.55662 4.3894L9.10662 4.3773L10.4128 7.8477H14.1867L11.2341 0.1568L11.1736 0H11.0064V0ZM13.8329 7.3628L10.8094 7.5203L9.56112 4.2062L9.35242 3.6484L9.11072 4.194L5.05782 13.4051L5.38162 13.2819C4.18632 12.7372 3.49512 11.7068 3.52912 10.5239C3.52972 10.5137 3.55592 10.4235 3.57022 10.3688C3.60172 10.251 3.61532 10.2021 3.61852 10.1615L3.59682 10.241L8.18732 0.345L7.96662 0.4859H11.0064L10.7792 0.3296L13.6067 7.6925L13.8329 7.3628V7.3628Z" fill="#009846"/>
<path d="M10.7532 7.34539L10.9378 8.05809L13.6657 7.96769L13.4535 7.31499L11.4414 6.49609L10.7532 7.34539Z" fill="#FEFEFE"/>
<path d="M8.48312 6.6381H10.0638V6.1519H8.48312V6.6381Z" fill="#009846"/>
<path d="M14.3589 6.6381H16.224V6.1519H14.3589V6.6381Z" fill="#009846"/>
<path d="M7.15144 15.5158L7.31174 15.5085C7.60614 15.4934 7.91784 15.446 8.23534 15.3696L8.39234 15.3334L8.46524 15.6446L8.31014 15.6828C7.97584 15.7614 7.64454 15.8118 7.32914 15.8289L7.16884 15.8374L7.15144 15.5158V15.5158ZM6.33584 15.7697C6.01344 15.723 5.68924 15.6514 5.37364 15.5575L5.21834 15.5108L5.31074 15.2044L5.46434 15.2494C5.76744 15.3401 6.07424 15.408 6.38284 15.4531L6.54134 15.4757L6.49454 15.7941L6.33584 15.7697V15.7697ZM8.98154 15.1449L9.13104 15.0862C9.42374 14.9714 9.71004 14.8356 9.98144 14.6808L10.1212 14.6021L10.2796 14.8809L10.1401 14.9609C9.85454 15.1209 9.55474 15.2636 9.24984 15.3853L9.09964 15.4444L8.98154 15.1449V15.1449ZM4.45194 15.2027C4.15234 15.0598 3.86634 14.893 3.59774 14.6994L3.46724 14.6057L3.65544 14.3447L3.78594 14.4387C4.03704 14.6201 4.30734 14.7782 4.58934 14.9138L4.73404 14.9821L4.59634 15.272L4.45194 15.2027V15.2027ZM10.635 14.2593L10.7605 14.1584C11.0133 13.9569 11.2367 13.7392 11.4213 13.5098L11.5221 13.3843L11.7729 13.5863L11.6722 13.7113C11.4698 13.9617 11.2292 14.1955 10.9608 14.4089H10.959L10.8335 14.5103L10.635 14.2593V14.2593ZM2.85374 14.0404C2.63044 13.7987 2.43174 13.5289 2.26624 13.2349L2.18764 13.094L2.46664 12.9372L2.54674 13.0762C2.70034 13.3493 2.88354 13.5982 3.09044 13.8247L3.19864 13.9426L2.96174 14.1584L2.85374 14.0404V14.0404ZM11.8274 12.8694L11.8938 12.7215C12.0169 12.4446 12.1202 12.1457 12.2002 11.8373L12.242 11.6825L12.552 11.7665L12.5102 11.921C12.4267 12.2412 12.3184 12.5577 12.186 12.8535L12.1202 13.0001L11.8274 12.8694V12.8694ZM1.85684 12.3333C1.73974 11.9978 1.66864 11.672 1.63524 11.3606L1.61954 11.2024L1.93884 11.1676L1.95624 11.3279C1.98574 11.6149 2.05174 11.914 2.15974 12.2289L2.21224 12.3805L1.90934 12.485L1.85684 12.3333ZM12.3589 11.0737L12.3782 10.9152C12.4127 10.637 12.4286 10.3688 12.4286 10.1188C12.4286 10.0716 12.4286 10.0244 12.4286 9.9794L12.4233 9.8191L12.7439 9.8087L12.7487 9.9702C12.7487 10.0192 12.751 10.0678 12.751 10.1188C12.751 10.3827 12.7336 10.6648 12.6967 10.9554V10.953L12.6778 11.1139L12.3589 11.0737V11.0737ZM1.63524 10.5186L1.66004 10.3603C1.71374 10.0192 1.81364 9.699 1.94054 9.4019L2.00474 9.2536L2.29934 9.3805L2.23664 9.5286C2.11644 9.8032 2.02754 10.0976 1.97684 10.4108L1.95274 10.5691L1.63524 10.5186ZM12.2838 9.0623C12.2173 8.8049 12.1304 8.4881 12.0276 8.1383L11.984 7.9835L12.2924 7.8946L12.3379 8.048C12.4393 8.401 12.5277 8.7194 12.5943 8.9838L12.634 9.1404L12.3222 9.2187L12.2838 9.0623V9.0623ZM2.33944 8.6675L2.43174 8.5367C2.63194 8.2562 2.85204 8.0044 3.07324 7.783L3.18664 7.6702L3.41504 7.8961L3.30164 8.0097C3.09044 8.2207 2.88354 8.4588 2.69514 8.7228L2.60074 8.8534L2.33944 8.6675ZM3.69004 7.2333L3.81694 7.1361C4.28634 6.7813 4.64344 6.5967 4.64894 6.5936L4.79124 6.5204L4.94014 6.8036L4.79704 6.877C4.79704 6.8787 4.46014 7.0526 4.01244 7.3924L3.88344 7.4895L3.69004 7.2333V7.2333ZM11.7542 7.2144C11.6632 6.9153 11.5677 6.6036 11.4698 6.294L11.4229 6.1411L11.7294 6.0449L11.7768 6.1985C11.8738 6.5098 11.9699 6.8213 12.0625 7.1223V7.1208L12.1095 7.2752L11.8008 7.3695L11.7542 7.2144V7.2144ZM11.1803 5.3749C11.078 5.0549 10.9785 4.7451 10.8859 4.4566L10.8371 4.3051L11.1422 4.2059L11.1907 4.359C11.2851 4.646 11.3844 4.9577 11.487 5.2775L11.5364 5.4309L11.2292 5.5283L11.1803 5.3749V5.3749ZM10.588 3.5393C10.4261 3.0435 10.3216 2.7307 10.3216 2.7307L10.2708 2.5771L10.5742 2.4765L10.6262 2.6278C10.6262 2.6278 10.731 2.9429 10.8934 3.4404L10.9416 3.5933L10.637 3.6927L10.588 3.5393V3.5393Z" fill="#009846"/>
</svg>
