<svg width="21" height="18" fill="none" xmlns="http://www.w3.org/2000/svg"><path d="M15.431 5.002l-.44-1.511 5.125 2.782L15 9.025l.429-1.375-8.72-.062s-3.133.547-3.203 3.005c-.06 2.124 1.917 3.344 3.521 3.293 1.991-.063 3.357-1.16 3.731-2.353.484-1.537-.12-3.894-.12-3.894h3.233s.996 3.622-.545 5.898c-1.66 2.452-3.687 3.285-6.193 3.37-2.72.09-6.83-1.457-6.89-5.92-.027-2.002.876-3.125 1.812-4.066 1.21-1.214 3.572-1.919 4.624-1.919h8.751z" fill="#FEFEFE"/><path d="M15.665 4.933l-.442-1.51-.35.282L20 6.486l.002-.426-5.116 2.751.348.286.428-1.376.098-.312-.328-.003-8.719-.06H6.69l-.021.004c-.034.006-3.33.61-3.405 3.237-.027.93.308 1.768.968 2.425.725.72 1.8 1.148 2.804 1.117 2.207-.069 3.576-1.317 3.956-2.522.498-1.585-.072-3.675-.096-3.774l2.643-.23c.01.036 1.01 2.769-.412 5.798-1.112 2.367-3.318 3.172-6.001 3.263-1.469.048-3.56-.398-5.03-1.798C1.05 13.868.51 12.562.486 10.984c-.025-1.95.886-3.032 1.742-3.892C3.352 5.964 5.616 5.244 6.68 5.244h9.075l-.09-.31zM6.68 4.76c-1.174 0-3.568.757-4.796 1.991-.927.93-1.913 2.102-1.883 4.24.023 1.714.615 3.136 1.76 4.227 1.58 1.505 3.815 1.984 5.38 1.932 2.855-.097 4.826-1.169 6.388-3.476 1.586-2.342.62-5.946.578-6.098l-.05-.179h-3.731l.077.303c.006.023.582 2.31.124 3.762-.327 1.04-1.538 2.12-3.506 2.182-.876.028-1.813-.346-2.446-.977a2.743 2.743 0 0 1-.824-2.066c.063-2.235 2.972-2.767 3.001-2.772l-.043.003 8.72.06-.233-.314-.428 1.376-.177.568.525-.282 5.114-2.751.395-.214-.393-.214-5.126-2.782L14.593 3l.165.56.44 1.51.233-.31h-8.75z" fill="#009846"/><path d="M11.006.242h-3.04l-4.59 9.898c-.004.052-.09.323-.09.377-.041 1.44.889 2.483 1.996 2.986l4.054-9.21 1.246 3.314h3.252L11.006.242z" fill="#FEFEFE"/><path d="M11.006 0H7.812l-.067.141-4.59 9.896-.017.038-.004.041c-.003.01-.022.08-.033.126a1.264 1.264 0 0 0-.06.267c-.04 1.387.76 2.587 2.14 3.215l.223.1.099-.224 4.054-9.21-.45-.013 1.306 3.47h3.774L11.234.158 11.174 0h-.168zm2.827 7.363l-3.024.157-1.248-3.314-.209-.558-.241.546-4.053 9.211.324-.123c-1.196-.545-1.887-1.575-1.853-2.758 0-.01.027-.1.041-.155a1.49 1.49 0 0 0 .049-.207l-.022.079L8.187.345l-.22.14h3.04L10.778.33l2.828 7.362.226-.33z" fill="#009846"/><path d="M10.753 7.345l.185.713 2.728-.09-.213-.653-2.012-.819-.688.85z" fill="#FEFEFE"/><path d="M8.483 6.638h1.58v-.486h-1.58v.486zm5.876 0h1.865v-.486h-1.865v.486zm-7.208 8.878l.16-.008c.295-.015.607-.062.924-.138l.157-.037.073.312-.155.038a5.658 5.658 0 0 1-.98.146l-.161.008-.018-.321zm-.815.254a6.814 6.814 0 0 1-.962-.213l-.156-.046.093-.307.153.045c.303.091.61.159.919.204l.158.023-.046.318-.16-.024zm2.646-.625l.149-.059c.293-.115.579-.25.85-.405l.14-.079.159.279-.14.08c-.285.16-.585.303-.89.424l-.15.06-.118-.3zm-4.53.058c-.3-.143-.586-.31-.854-.504l-.13-.093.187-.261.13.094c.252.181.522.34.804.475l.145.068-.138.29-.144-.07zm6.183-.944l.126-.1c.252-.202.476-.42.66-.65l.101-.125.25.202-.1.125c-.202.25-.443.484-.711.698h-.002l-.125.101-.199-.25zm-7.781-.219a4.289 4.289 0 0 1-.588-.805l-.078-.141.279-.157.08.14c.153.272.337.521.543.748l.109.118-.237.215-.108-.118zm8.973-1.17l.067-.148c.123-.277.226-.576.306-.885l.042-.155.31.085-.042.154c-.083.32-.192.637-.324.933L12.12 13l-.293-.13zm-9.97-.537a4.36 4.36 0 0 1-.222-.972l-.015-.159.319-.034.017.16c.03.287.096.586.204.9l.052.152-.303.105-.052-.152zm10.502-1.26l.02-.158a6.59 6.59 0 0 0 .05-.796v-.14l-.006-.16.32-.01.006.161.002.149c0 .264-.017.546-.054.836v-.002l-.02.16-.318-.04zM1.635 10.52l.025-.159c.054-.34.154-.661.28-.958l.065-.148.294.127-.062.148a3.62 3.62 0 0 0-.26.882l-.024.158-.318-.05zm10.649-1.457a29.603 29.603 0 0 0-.256-.924l-.044-.154.308-.09.046.154c.101.353.19.671.256.936l.04.156-.312.079-.038-.157zm-9.945-.394l.093-.131c.2-.28.42-.533.641-.754l.114-.113.228.226-.113.114c-.212.21-.418.449-.607.713l-.094.13-.262-.185zM3.69 7.232l.127-.097c.47-.355.826-.54.832-.542l.142-.074.15.284-.144.073c0 .002-.337.176-.785.515l-.129.097-.193-.256zm8.064-.019c-.09-.299-.186-.61-.284-.92l-.047-.153.306-.096.048.154.286.923V7.12l.046.154-.308.095-.047-.156zm-.574-1.84l-.294-.917-.049-.152.305-.1.049.154c.094.287.193.599.296.918l.05.154-.308.097-.049-.153zm-.592-1.835c-.162-.496-.266-.808-.266-.808l-.051-.154.303-.1.052.15s.105.316.267.813l.049.153-.305.1-.049-.154z" fill="#009846"/></svg>